<mxfile host="65bd71144e">
    <diagram id="6CpJWopCnKhzvEcMYAuf" name="Page-1">
        <mxGraphModel dx="1130" dy="862" grid="1" gridSize="10" guides="1" tooltips="1" connect="1" arrows="1" fold="1" page="1" pageScale="1" pageWidth="827" pageHeight="1169" math="0" shadow="0">
            <root>
                <mxCell id="0"/>
                <mxCell id="1" parent="0"/>
                <mxCell id="2" value="15" style="rounded=0;whiteSpace=wrap;html=1;fontFamily=Times New Roman;fontSize=25;" vertex="1" parent="1">
                    <mxGeometry x="320" y="200" width="40" height="40" as="geometry"/>
                </mxCell>
                <mxCell id="3" value="16" style="rounded=0;whiteSpace=wrap;html=1;fontFamily=Times New Roman;fontSize=25;" vertex="1" parent="1">
                    <mxGeometry x="280" y="200" width="40" height="40" as="geometry"/>
                </mxCell>
                <mxCell id="4" value="13" style="rounded=0;whiteSpace=wrap;html=1;fontFamily=Times New Roman;fontSize=25;" vertex="1" parent="1">
                    <mxGeometry x="240" y="200" width="40" height="40" as="geometry"/>
                </mxCell>
                <mxCell id="5" value="14" style="rounded=0;whiteSpace=wrap;html=1;fontFamily=Times New Roman;fontSize=25;" vertex="1" parent="1">
                    <mxGeometry x="200" y="200" width="40" height="40" as="geometry"/>
                </mxCell>
                <mxCell id="6" value="..." style="rounded=0;whiteSpace=wrap;html=1;fontFamily=Times New Roman;fontSize=25;" vertex="1" parent="1">
                    <mxGeometry x="120" y="200" width="80" height="40" as="geometry"/>
                </mxCell>
                <mxCell id="7" value="1" style="rounded=0;whiteSpace=wrap;html=1;fontFamily=Times New Roman;fontSize=25;" vertex="1" parent="1">
                    <mxGeometry x="80" y="200" width="40" height="40" as="geometry"/>
                </mxCell>
                <mxCell id="8" value="2" style="rounded=0;whiteSpace=wrap;html=1;fontFamily=Times New Roman;fontSize=25;" vertex="1" parent="1">
                    <mxGeometry x="40" y="200" width="40" height="40" as="geometry"/>
                </mxCell>
                <mxCell id="9" value="31" style="rounded=0;whiteSpace=wrap;html=1;fontFamily=Times New Roman;fontSize=25;" vertex="1" parent="1">
                    <mxGeometry x="320" y="160" width="40" height="40" as="geometry"/>
                </mxCell>
                <mxCell id="10" value="32" style="rounded=0;whiteSpace=wrap;html=1;fontFamily=Times New Roman;fontSize=25;" vertex="1" parent="1">
                    <mxGeometry x="280" y="160" width="40" height="40" as="geometry"/>
                </mxCell>
                <mxCell id="11" value="29" style="rounded=0;whiteSpace=wrap;html=1;fontFamily=Times New Roman;fontSize=25;" vertex="1" parent="1">
                    <mxGeometry x="240" y="160" width="40" height="40" as="geometry"/>
                </mxCell>
                <mxCell id="12" value="30" style="rounded=0;whiteSpace=wrap;html=1;fontFamily=Times New Roman;fontSize=25;" vertex="1" parent="1">
                    <mxGeometry x="200" y="160" width="40" height="40" as="geometry"/>
                </mxCell>
                <mxCell id="13" value="..." style="rounded=0;whiteSpace=wrap;html=1;fontFamily=Times New Roman;fontSize=25;" vertex="1" parent="1">
                    <mxGeometry x="120" y="160" width="80" height="40" as="geometry"/>
                </mxCell>
                <mxCell id="14" value="17" style="rounded=0;whiteSpace=wrap;html=1;fontFamily=Times New Roman;fontSize=25;" vertex="1" parent="1">
                    <mxGeometry x="80" y="160" width="40" height="40" as="geometry"/>
                </mxCell>
                <mxCell id="15" value="18" style="rounded=0;whiteSpace=wrap;html=1;fontFamily=Times New Roman;fontSize=25;" vertex="1" parent="1">
                    <mxGeometry x="40" y="160" width="40" height="40" as="geometry"/>
                </mxCell>
            </root>
        </mxGraphModel>
    </diagram>
</mxfile>